<?xml version="1.0" standalone="no"?>
<!DOCTYPE svg PUBLIC "-//W3C//DTD SVG 20010904//EN"
 "http://www.w3.org/TR/2001/REC-SVG-20010904/DTD/svg10.dtd">
<svg version="1.0" xmlns="http://www.w3.org/2000/svg"
 width="330.000000pt" height="330.000000pt" viewBox="0 0 330.000000 330.000000"
 preserveAspectRatio="xMidYMid meet">
<metadata>
Created by potrace 1.11, written by Peter Selinger 2001-2013
</metadata>
<g transform="translate(0.000000,330.000000) scale(0.100000,-0.100000)"
fill="#000000" stroke="none">
<path d="M565 3083 c-149 -15 -257 -88 -300 -205 -20 -52 -20 -82 -20 -1233 0
-1139 1 -1182 19 -1230 29 -74 94 -138 174 -171 63 -26 76 -28 217 -28 134 0
156 3 209 23 64 26 138 87 163 135 41 80 43 107 43 759 0 346 4 627 8 625 9
-3 85 -90 322 -368 69 -81 152 -178 185 -216 l60 -69 180 210 c99 116 225 264
279 328 55 64 103 117 108 117 4 0 8 -282 8 -627 0 -652 2 -679 43 -759 25
-48 99 -109 163 -135 52 -20 76 -23 209 -23 134 0 156 3 209 24 75 29 147 95
177 163 l24 52 0 1190 0 1190 -33 68 c-62 126 -170 178 -367 178 -152 1 -248
-31 -342 -111 -16 -14 -166 -190 -333 -390 -166 -201 -308 -371 -314 -377 -13
-14 9 -38 -395 445 -290 347 -325 378 -471 421 -36 11 -171 19 -225 14z"/>
</g>
</svg>
